<svg width="20" height="21" viewBox="0 0 20 21" fill="none" xmlns="http://www.w3.org/2000/svg">
<path fill-rule="evenodd" clip-rule="evenodd" d="M16.75 2.88342H14.5V2.13342C14.5 1.71921 14.1642 1.38342 13.75 1.38342C13.3358 1.38342 13 1.71921 13 2.13342V2.88342H7V2.13342C7 1.71921 6.66421 1.38342 6.25 1.38342C5.83579 1.38342 5.5 1.71921 5.5 2.13342V2.88342H3.25C2.65326 2.88342 2.08097 3.12048 1.65901 3.54243C1.23705 3.96439 1 4.53669 1 5.13342V16.8834C1 18.2641 2.11929 19.3834 3.5 19.3834H16.5C17.8807 19.3834 19 18.2641 19 16.8834V5.13342C19 4.53669 18.7629 3.96439 18.341 3.54243C17.919 3.12048 17.3467 2.88342 16.75 2.88342ZM2.5 5.13342C2.5 4.93451 2.57902 4.74375 2.71967 4.60309C2.86032 4.46244 3.05109 4.38342 3.25 4.38342H16.75C16.9489 4.38342 17.1397 4.46244 17.2803 4.60309C17.421 4.74375 17.5 4.93451 17.5 5.13342V7.38342H2.5V5.13342ZM3.5 17.8834C2.94772 17.8834 2.5 17.4357 2.5 16.8834V8.88342H17.5V16.8834C17.5 17.4357 17.0523 17.8834 16.5 17.8834H3.5ZM13.45 11.1335H12.55C12.3843 11.1335 12.25 11.2678 12.25 11.4335V12.3335C12.25 12.4992 12.3843 12.6335 12.55 12.6335H13.45C13.6157 12.6335 13.75 12.4992 13.75 12.3335V11.4335C13.75 11.2678 13.6157 11.1335 13.45 11.1335ZM9.55029 11.1335H10.4503C10.616 11.1335 10.7503 11.2678 10.7503 11.4335V12.3335C10.7503 12.4992 10.616 12.6335 10.4503 12.6335H9.55029C9.38461 12.6335 9.25029 12.4992 9.25029 12.3335V11.4335C9.25029 11.2678 9.38461 11.1335 9.55029 11.1335ZM7.4497 11.1335H6.54971C6.38402 11.1335 6.24971 11.2678 6.24971 11.4335V12.3335C6.24971 12.4992 6.38402 12.6335 6.54971 12.6335H7.4497C7.61539 12.6335 7.7497 12.4992 7.7497 12.3335V11.4335C7.7497 11.2678 7.61539 11.1335 7.4497 11.1335ZM12.55 14.1335H13.45C13.6157 14.1335 13.75 14.2678 13.75 14.4335V15.3335C13.75 15.4992 13.6157 15.6335 13.45 15.6335H12.55C12.3843 15.6335 12.25 15.4992 12.25 15.3335V14.4335C12.25 14.2678 12.3843 14.1335 12.55 14.1335ZM10.4503 14.1335H9.55029C9.38461 14.1335 9.25029 14.2678 9.25029 14.4335V15.3335C9.25029 15.4992 9.38461 15.6335 9.55029 15.6335H10.4503C10.616 15.6335 10.7503 15.4992 10.7503 15.3335V14.4335C10.7503 14.2678 10.616 14.1335 10.4503 14.1335ZM6.54971 14.1335H7.4497C7.61539 14.1335 7.7497 14.2678 7.7497 14.4335V15.3335C7.7497 15.4992 7.61539 15.6335 7.4497 15.6335H6.54971C6.38402 15.6335 6.24971 15.4992 6.24971 15.3335V14.4335C6.24971 14.2678 6.38402 14.1335 6.54971 14.1335Z" fill="#0C5CD5"/>
</svg>
