<svg width="50" height="50" viewBox="0 0 50 50" fill="none" xmlns="http://www.w3.org/2000/svg">
<path d="M24.9969 49.9971C38.8024 49.9971 49.9939 38.8055 49.9939 25.0001C49.9939 11.1947 38.8024 0.00317383 24.9969 0.00317383C11.1915 0.00317383 0 11.1947 0 25.0001C0 38.8055 11.1915 49.9971 24.9969 49.9971Z" fill="white"/>
<path d="M25.133 23.7199L11.4485 15.6579C12.0249 14.6362 13.0976 14.0038 14.261 14H36.0008C37.1838 14.0042 38.2711 14.6581 38.8395 15.7071L25.133 23.7199ZM25.6749 25.9421C25.3372 26.1395 24.9208 26.1389 24.5837 25.9406L11 17.9383V32.6841C11.002 34.5043 12.4608 35.9793 14.261 35.9813H36.0008C37.8009 35.9793 39.2597 34.5043 39.2617 32.6841V17.9994L25.6749 25.9421Z" fill="#1C4EB0"/>
</svg>
