<svg width="50" height="50" viewBox="0 0 50 50" fill="none" xmlns="http://www.w3.org/2000/svg">
<g clip-path="url(#clip0_1767_15623)">
<g clip-path="url(#clip1_1767_15623)">
<g clip-path="url(#clip2_1767_15623)">
<path d="M42.673 42.6716C52.4349 32.9097 52.4349 17.0825 42.673 7.32059C32.9111 -2.44133 17.0839 -2.44133 7.32199 7.32059C-2.43992 17.0825 -2.43992 32.9097 7.32199 42.6716C17.0839 52.4335 32.9111 52.4335 42.673 42.6716Z" fill="white"/>
<path d="M28.5893 15.0461L29.6944 13.9614C31.0005 12.6795 33.2735 12.6795 34.5795 13.9614L35.4712 14.8365C36.1242 15.4775 36.4884 16.328 36.4884 17.2277C36.4884 18.1275 36.1242 18.9903 35.4712 19.6189L34.366 20.7036L28.5893 15.0337V15.0461ZM27.2581 16.3526L15.8177 27.5814C15.4535 27.9388 15.2274 28.4072 15.1898 28.9125L14.8507 32.524C14.813 32.98 14.9763 33.4238 15.3028 33.7566C15.6042 34.0524 15.9935 34.2126 16.4079 34.2126H16.546L20.2256 33.8798C20.7405 33.8305 21.2177 33.6087 21.5819 33.2512L33.0223 22.0224L27.2456 16.3526H27.2581ZM39 36.2825C39 35.7771 38.573 35.358 38.0581 35.358H12.9419C12.427 35.358 12 35.7771 12 36.2825C12 36.7878 12.427 37.2069 12.9419 37.2069H38.0581C38.573 37.2069 39 36.7878 39 36.2825Z" fill="#1C4EB0"/>
</g>
</g>
</g>
<defs>
<clipPath id="clip0_1767_15623">
<rect width="50" height="50" fill="white"/>
</clipPath>
<clipPath id="clip1_1767_15623">
<rect width="50" height="50" fill="white"/>
</clipPath>
<clipPath id="clip2_1767_15623">
<rect width="50" height="50" fill="white"/>
</clipPath>
</defs>
</svg>
