<svg width="50" height="50" viewBox="0 0 50 50" fill="none" xmlns="http://www.w3.org/2000/svg">
<g clip-path="url(#clip0_1767_15613)">
<g clip-path="url(#clip1_1767_15613)">
<g clip-path="url(#clip2_1767_15613)">
<path d="M49.3248 30.7423C52.4961 17.306 44.1746 3.84296 30.7384 0.671718C17.3021 -2.49953 3.83907 5.82191 0.667829 19.2582C-2.50342 32.6944 5.81802 46.1575 19.2543 49.3287C32.6905 52.5 46.1536 44.1785 49.3248 30.7423Z" fill="white"/>
<path d="M29.6319 25.8579L27.2242 28.6068C26.2478 29.7217 24.5298 29.7457 23.5323 28.6068L21.1245 25.8579L12.4766 35.7298C12.7985 35.8992 13.1534 36.0002 13.5307 36.0002H37.2258C37.6031 36.0002 37.9579 35.8993 38.2797 35.7299L29.6319 25.8579Z" fill="#1C4EB0"/>
<path d="M37.2257 13H13.5306C13.1533 13 12.7984 13.1011 12.4766 13.2704L21.7175 23.82C21.7181 23.8207 21.7188 23.8208 21.7194 23.8215C21.7201 23.8222 21.7202 23.8232 21.7202 23.8232L24.7249 27.2534C25.0441 27.6165 25.7123 27.6165 26.0315 27.2534L29.0356 23.8238C29.0356 23.8238 29.0363 23.8222 29.037 23.8215C29.037 23.8215 29.0383 23.8207 29.0389 23.82L38.2796 13.2704C37.9578 13.1009 37.603 13 37.2257 13Z" fill="#1C4EB0"/>
<path d="M11.2687 14.6106C11.1022 14.9938 11 15.4192 11 15.8748V33.1249C11 33.5805 11.1021 34.0059 11.2687 34.3891L19.9316 24.5002L11.2687 14.6106Z" fill="#1C4EB0"/>
<path d="M39.4812 14.6108L30.8184 24.5006L39.4812 34.3896C39.6477 34.0064 39.7499 33.581 39.7499 33.1253V15.8752C39.7499 15.4194 39.6477 14.994 39.4812 14.6108Z" fill="#1C4EB0"/>
</g>
</g>
</g>
<defs>
<clipPath id="clip0_1767_15613">
<rect width="50" height="50" fill="white"/>
</clipPath>
<clipPath id="clip1_1767_15613">
<rect width="50" height="50" fill="white"/>
</clipPath>
<clipPath id="clip2_1767_15613">
<rect width="50" height="50" fill="white"/>
</clipPath>
</defs>
</svg>
