<svg width="50" height="50" viewBox="0 0 50 50" fill="none" xmlns="http://www.w3.org/2000/svg">
<path d="M24.9911 49.9971C38.7965 49.9971 49.988 38.8055 49.988 25.0001C49.988 11.1947 38.7965 0.00317383 24.9911 0.00317383C11.1857 0.00317383 -0.00585938 11.1947 -0.00585938 25.0001C-0.00585938 38.8055 11.1857 49.9971 24.9911 49.9971Z" fill="white"/>
<path d="M18.7848 16.0333C18.7848 14.9389 19.1093 13.8691 19.7174 12.9592C20.3254 12.0492 21.1896 11.34 22.2006 10.9212C23.2117 10.5024 24.3243 10.3928 25.3976 10.6063C26.471 10.8198 27.457 11.3468 28.2308 12.1207C29.0047 12.8945 29.5317 13.8805 29.7452 14.9538C29.9587 16.0272 29.8491 17.1398 29.4303 18.1508C29.0115 19.1619 28.3023 20.0261 27.3923 20.6341C26.4823 21.2421 25.4125 21.5667 24.3181 21.5667C22.8506 21.5667 21.4432 20.9837 20.4055 19.946C19.3678 18.9083 18.7848 17.5009 18.7848 16.0333ZM32.6845 26.6573C32.6665 26.5296 32.6043 26.4121 32.5089 26.3253C31.7828 25.6453 30.9273 25.1185 29.9932 24.7763C29.0592 24.434 28.0659 24.2834 27.0724 24.3333H21.539C15.9227 24.3333 13.9307 28.4418 13.9307 31.9693C13.9307 35.1233 13.5094 36.6588 16.6772 36.6588L25.9657 36.7833C26.0202 36.7849 26.0745 36.7745 26.1247 36.753C26.1748 36.7315 26.2197 36.6994 26.2562 36.6588C26.3332 36.5785 26.3775 36.4725 26.3807 36.3614V34.0166C26.3812 33.4665 26.6001 32.9391 26.9894 32.5503L32.5642 26.9478C32.6398 26.8698 32.6828 26.7659 32.6845 26.6573ZM28.4557 34.0166V37.475H31.914L38.193 31.2237L34.7084 27.7391L28.4557 34.0166ZM40.5017 26.9769L38.9524 25.4275C38.6932 25.1699 38.3426 25.0253 37.9772 25.0253C37.6117 25.0253 37.2611 25.1699 37.0019 25.4275L35.6753 26.7694L39.1599 30.254L40.5017 28.9274C40.759 28.6682 40.9033 28.3179 40.9033 27.9528C40.9033 27.5877 40.759 27.236 40.5017 26.9769Z" fill="#1C4EB0"/>
</svg>
