<svg width="20" height="21" viewBox="0 0 20 21" fill="none" xmlns="http://www.w3.org/2000/svg">
<path d="M10.72 18.9035C10.33 19.2835 9.71 19.2835 9.32 18.9035L4.74 14.4135C4.03 13.7235 3.47 12.8935 3.09 11.9835C2.71 11.0735 2.5 10.0935 2.5 9.1035C2.5 8.1135 2.69 7.1335 3.06 6.2235C3.44 5.3135 3.99 4.4735 4.69 3.7735C5.39 3.0735 6.22 2.5235 7.13 2.1435C8.04 1.7735 9.02 1.5835 10.01 1.5835C11 1.5835 11.98 1.7835 12.89 2.1735C13.8 2.5535 14.63 3.1235 15.32 3.8235C16.72 5.2235 17.51 7.1335 17.51 9.1135C17.51 11.0935 16.72 13.0035 15.32 14.4035L10.73 18.8935L10.72 18.9035ZM10.02 3.1335C8.84 3.1335 7.68 3.4835 6.7 4.1435C5.72 4.8035 4.95 5.7335 4.5 6.8335C4.05 7.9235 3.93 9.1335 4.16 10.2935C4.39 11.4535 4.96 12.5235 5.8 13.3635L9.68 17.1635C9.87 17.3535 10.19 17.3535 10.38 17.1635L14.27 13.3635C15.11 12.5235 15.68 11.4535 15.91 10.2935C16.14 9.1335 16.02 7.9235 15.57 6.8335C15.12 5.7435 14.35 4.8035 13.36 4.1435C12.38 3.4835 11.22 3.1335 10.04 3.1335H10.02Z" fill="#0C5CD5"/>
<path d="M9.96461 11.9163C8.31328 11.9163 6.97461 10.5776 6.97461 8.92628C6.97461 7.27495 8.31328 5.93628 9.96461 5.93628C11.6159 5.93628 12.9546 7.27495 12.9546 8.92628C12.9546 10.5776 11.616 11.9163 9.96461 11.9163ZM9.96461 7.43125C9.13895 7.43125 8.46961 8.10058 8.46961 8.92625C8.46961 9.75191 9.13895 10.4212 9.96461 10.4212C10.7903 10.4212 11.4596 9.75191 11.4596 8.92625C11.4596 8.10058 10.7903 7.43125 9.96461 7.43125Z" fill="#0C5CD5"/>
</svg>
