<svg width="20" height="21" viewBox="0 0 20 21" fill="none" xmlns="http://www.w3.org/2000/svg">
<path d="M11.7454 13.4838C11.6878 13.5414 11.6008 13.5584 11.5263 13.5256C9.44174 12.6063 7.77766 10.9383 6.86337 8.85157C6.83077 8.77717 6.84785 8.69054 6.90523 8.63305L7.59638 7.94069C8.57095 6.9644 8.57056 5.38323 7.59553 4.40742L6.43285 3.24382C5.45676 2.26695 3.87353 2.26651 2.89689 3.24283L2.28714 3.8524C1.87464 4.26725 1.5485 4.75979 1.32759 5.3015C1.10668 5.84322 0.995389 6.42336 1.00015 7.00837C1.00015 12.4443 7.93909 19.3833 13.375 19.3833C13.96 19.3884 14.5401 19.2772 15.0818 19.0563C15.6234 18.8354 16.1158 18.509 16.5303 18.0963L17.1407 17.4858C18.117 16.5095 18.117 14.9266 17.1407 13.9503L15.9776 12.7871C15.0012 11.8108 13.4183 11.8108 12.442 12.7871L11.7454 13.4838ZM15.469 17.0358C15.1936 17.3088 14.8666 17.5243 14.5072 17.6698C14.1477 17.8153 13.7628 17.8879 13.375 17.8833C8.70033 17.8833 2.50013 11.6831 2.50013 7.00837C2.49572 6.6205 2.56836 6.23561 2.71384 5.87603C2.85932 5.51644 3.07475 5.18932 3.34763 4.91364L3.95826 4.30301C4.34878 3.91248 4.98195 3.91248 5.37247 4.30301L6.53599 5.46652C6.92651 5.85704 6.92651 6.49021 6.53599 6.88074L5.27478 8.14194C5.13346 8.28326 5.08987 8.49517 5.16394 8.6808L5.22561 8.83535C5.76654 10.2823 6.61217 11.5961 7.7052 12.6877C8.79824 13.7793 10.1131 14.6232 11.5608 15.1623L11.7126 15.2202C11.8968 15.2904 12.105 15.2458 12.2443 15.1064L13.5027 13.8477C13.8932 13.457 14.5264 13.457 14.917 13.8475L16.0802 15.0107C16.4708 15.4013 16.4707 16.0347 16.08 16.4251L15.469 17.0358ZM12.2473 2.93089C11.8366 2.87895 11.5001 2.54813 11.5001 2.13425C11.5001 1.71971 11.8372 1.37991 12.2496 1.42174C13.9626 1.59546 15.5727 2.35428 16.8009 3.58251C18.0291 4.81075 18.788 6.42078 18.9617 8.13379C19.0035 8.54621 18.6637 8.88335 18.2492 8.88335C17.8353 8.88335 17.5045 8.54677 17.4525 8.13616C17.2862 6.82105 16.6879 5.58996 15.7407 4.64272C14.7935 3.69549 13.5624 3.09724 12.2473 2.93089ZM12.2419 5.97655C11.8408 5.87416 11.5001 5.54777 11.5001 5.13376C11.5001 4.71947 11.8384 4.37738 12.2469 4.44648C13.1629 4.60144 14.0152 5.03722 14.6807 5.70272C15.3462 6.36822 15.782 7.22054 15.9369 8.13648C16.006 8.54497 15.664 8.88335 15.2497 8.88335C14.8357 8.88335 14.5093 8.54263 14.4069 8.14149C14.2747 7.62384 14.0055 7.14622 13.6214 6.76205C13.2372 6.37789 12.7596 6.10867 12.2419 5.97655Z" fill="#0C5CD5"/>
</svg>
